<svg aria-hidden="true" style="position: absolute; width: 0; height: 0; overflow: hidden;" version="1.1" xmlns="http://www.w3.org/2000/svg" xmlns:xlink="http://www.w3.org/1999/xlink">
<defs>
<symbol id="next" viewBox="0 0 32 32">
<path d="M11.423 5.003c-0.406 0.406-0.406 1.060 0 1.466l9.531 9.531-9.531 9.531c-0.406 0.406-0.406 1.060 0 1.466s1.060 0.407 1.466 0l10.264-10.264c0.406-0.406 0.406-1.060 0-1.466l-10.264-10.264c-0.406-0.406-1.060-0.406-1.466 0z"></path>
<path d="M16 0c-8.837 0-16 7.163-16 16v0c0 8.837 7.163 16 16 16v0c8.837-0 16-7.163 16-16v0c-0-8.837-7.163-16-16-16v0zM16 2.141c7.654 0 13.859 6.205 13.859 13.859v0c-0 7.654-6.205 13.859-13.859 13.859v0c-7.654-0-13.859-6.205-13.859-13.859v0c0-7.654 6.205-13.859 13.859-13.859v0z"></path>
</symbol>
<symbol id="prev" viewBox="0 0 32 32">
<path d="M20.154 5.003c0.406 0.406 0.406 1.060 0 1.466l-9.531 9.531 9.531 9.531c0.406 0.406 0.406 1.060-0 1.466s-1.060 0.407-1.466 0l-10.264-10.264c-0.406-0.406-0.406-1.060 0-1.466l10.264-10.264c0.406-0.406 1.060-0.406 1.466 0z"></path>
<path d="M16 0c-8.837 0-16 7.163-16 16v0c0 8.837 7.163 16 16 16v0c8.837-0 16-7.163 16-16v0c-0-8.837-7.163-16-16-16v0zM16 2.141c7.654 0 13.859 6.205 13.859 13.859v0c-0 7.654-6.205 13.859-13.859 13.859v0c-7.654-0-13.859-6.205-13.859-13.859v0c0-7.654 6.205-13.859 13.859-13.859v0z"></path>
</symbol>
</defs>
</svg>
